<svg height="30" viewBox="0 0 182 30" width="182" xmlns="http://www.w3.org/2000/svg"><g fill="#2e5488" fill-rule="evenodd"><path d="m31.2195122 11.9260918c0-4.18253077-2.5570748-7.55879057-5.6550692-7.55879057-.8851412 0-1.721108.25195969-2.4587257.75587906-.2458725-.45352743-.5409196-.85666293-.8359667-1.20940649v-.05039194c-.3933961-.55431131-.9343158-1.05823068-1.5735845-1.51175812-1.3277119-1.00783875-2.9996454-1.56215006-4.7207534-1.56215006-.8359667 0-1.6719334.15117582-2.4587257.4031355-1.0818393.30235163-2.2620276.95744681-3.2946924 2.06606943-.0491746.05039194-.0983491.10078388-.1475236.15117581-.0491745.10078388-.14752352.15117582-.19669804.20156775 0 .05039194-.04917451.05039194-.04917451.10078388-.3442216.45352743-.6884432.90705487-.98349029 1.41097424-.73761772-.50391937-1.57358446-.70548712-2.4095512-.70548712-3.09799441 0-5.65506915 3.3762598-5.65506915 7.55879063 0 3.3762598 1.62275897 6.2486002 3.98313566 7.206047-.04917452.2519597-.09834903.5543113-.14752354.806271-.04917452.2519597-.04917452.5543113-.04917452.806271 0 4.6360582 5.16332401 8.4154535 11.45766189 8.4154535 6.2943378 0 11.4576618-3.7793953 11.4576618-8.4154535 0-.2519597 0-.5543113-.0491745-.806271-.0491745-.3023516-.098349-.5543113-.1966981-.8566629 2.3112022-.9574469 3.9831357-3.8297873 3.9831357-7.2060471zm-1.8686316 0c0 2.5699888-1.2293628 4.837626-2.8521218 5.4423293-.5900942-.9574469-1.3768864-1.8645017-2.4587257-2.6203808v-5.6942889c0-.70548712-.098349-1.46136618-.2950471-2.1668533.4425706-.35274356 1.0326648-.65509519 1.7702825-.65509519 2.1145041 0 3.8356121 2.5699888 3.8356121 5.69428889zm-26.75093576 0c0-3.12430009 1.721108-5.64389695 3.7864376-5.64389695.6884432 0 1.27853738.30235162 1.721108.65509518-.19669805.70548713-.29504708 1.46136619-.29504708 2.16685331v5.74468086c-1.0326648.755879-1.81945703 1.612542-2.36037669 2.5699888-1.62275897-.7054871-2.85212183-2.9227324-2.85212183-5.4927212zm13.37546786 15.319149c-5.3108475 0-9.63820477-2.9227324-9.63820477-6.5005599 0-.3023517.04917451-.5543114.09834903-.856663 0-.0503919 0-.1007839.04917451-.1511758.04917452-.3023516.14752354-.5543113.29504709-.8566629.44257063-.9574468 1.18018834-1.8141098 2.21285314-2.5699888.04917452-.050392.09834903-.1007839.14752355-.1511758l.29504708-.3527436c.14752355-.1511758.24587257-.4031355.24587257-.6550952v-6.0974244c0-.75587906.14752355-1.46136618.3933961-2.1668533.1475236-.4031355.2950471-.75587906.6392687-1.25979844.3442216-.50391937 1.1801884-.90705487 1.7702825-.90705487 1.622759 0 2.3112022.90705487 2.5079003 1.612542.1475235.35274356.4917451.60470324.8851412.65509518.3933961 0 .7376177-.25195969.8851413-.60470325.5409196-1.66293393 2.9996453-2.31802911 4.1798337-1.20940649.6884432.70548712.7376177 1.15901456.9834903 1.81410974 0 .05039194.0491745.10078388.098349.15117581v.10078388c.1966981.60470324.2950471 1.25979843.2950471 1.91489361v6.09742443c0 .2519597.098349.5039194.2458726.6550952l.2458725.2519597c.0491746.0503919.0983491.1007838.1475236.1511758 1.0818393.755879 1.8686315 1.6629339 2.3112022 2.6707726.098349.2519597.196698.5543114.295047.806271 0 .050392.0491746.1007839.0491746.2015678.0491745.3023516.098349.5543113.098349.8566629-.098349 3.4770437-4.4257063 6.3997761-9.7365539 6.3997761zm-2.8704393-12.9158499c-.5686548 0-1.0296406.4718087-1.0296406 1.0538143s.4609858 0 1.0296406 0 1.0296406.5820056 1.0296406 0-.4609858-1.0538143-1.0296406-1.0538143zm5.8034287 0c-.5686548 0-1.0296406.4718087-1.0296406 1.0538143s.4609858 0 1.0296406 0c.5686547 0 1.0296405.5820056 1.0296405 0s-.4609858-1.0538143-1.0296405-1.0538143z"/><text font-family="Lato-Bold, Lato" font-size="22" font-weight="bold" letter-spacing=".550000008"><tspan x="38" y="23">PDFMONKEY</tspan></text></g></svg>